<!-- ================================================================
AnabhiDev-PORKCHOLESTEROL — Interactive Pork Nutrition Comparison
SVG · Vector Icon
Development · Anabhi Dev
Version   : 1.1
Generated : 10 September 2026, 07:55:00
================================================================ -->
<svg xmlns="http://www.w3.org/2000/svg" viewBox="0 0 64 64" width="64" height="64">
  <defs>
    <linearGradient id="favGrad" x1="0%" y1="0%" x2="100%" y2="100%">
      <stop offset="0%" stop-color="#185a84"/>
      <stop offset="100%" stop-color="#0e2e48"/>
    </linearGradient>
    <linearGradient id="goldGrad" x1="0%" y1="0%" x2="100%" y2="100%">
      <stop offset="0%" stop-color="#ffb21b"/>
      <stop offset="100%" stop-color="#d48a08"/>
    </linearGradient>
  </defs>
  <rect width="64" height="64" rx="16" fill="url(#favGrad)"/>
  <circle cx="32" cy="32" r="24" fill="none" stroke="rgba(255,255,255,0.12)" stroke-width="1.5"/>
  <path d="M46 30c-1-4-4-7-8-8-2-2-5-3-9-2-3 1-5 3-7 6-3 1-5 4-5 7 0 5 4 8 9 8h12c5 0 9-4 9-9 0-1 0-1.5-.5-2z" fill="url(#goldGrad)"/>
  <ellipse cx="23" cy="33" rx="1.5" ry="1.5" fill="#0e2e48"/>
  <circle cx="21" cy="31" r="0.8" fill="#fff"/>
  <path d="M22 36c1.5 2 4 2 6 0" stroke="#0e2e48" stroke-width="1.2" stroke-linecap="round" fill="none"/>
  <path d="M44 32c1.5-1 3-1 4 0" stroke="#d48a08" stroke-width="1.5" stroke-linecap="round" fill="none"/>
  <rect x="25" y="41" width="3" height="4" rx="1" fill="url(#goldGrad)"/>
  <rect x="37" y="41" width="3" height="4" rx="1" fill="url(#goldGrad)"/>
</svg>

